<svg version="1.1" id="Layer_1" xmlns="http://www.w3.org/2000/svg" xmlns:xlink="http://www.w3.org/1999/xlink" x="0px" y="0px"
	 width="100%" viewBox="0 0 1024 1024" enable-background="new 0 0 1024 1024" xml:space="preserve">

<path fill="#FFD124" opacity="1.000000" stroke="none" 
	d="
M193.121552,395.045776 
	C193.074158,366.578400 192.460632,338.097137 193.160461,309.648132 
	C193.709518,287.327850 213.443573,264.996307 236.920517,257.999146 
	C238.033508,257.667419 239.162323,257.388855 240.971893,257.382812 
	C248.641525,257.786072 255.623016,257.981567 262.604553,257.984070 
	C326.243927,258.006897 389.883301,258.011658 453.522522,257.916565 
	C455.345551,257.913849 457.166779,256.746399 458.988861,256.122009 
	C460.722351,256.078369 462.455811,256.034729 464.894714,256.321442 
	C468.053802,256.476013 470.507477,256.300201 472.961182,256.124390 
	C476.682770,256.077911 480.404358,256.031433 484.884491,256.324951 
	C489.408112,256.505646 493.173157,256.346344 496.938232,256.187042 
	C497.385864,256.138306 497.833527,256.089569 498.582611,256.386719 
	C497.610382,258.505096 496.336700,260.277618 494.592316,261.980713 
	C486.677795,262.274902 479.137634,262.010529 471.810455,263.134491 
	C457.084534,265.393402 443.478394,270.295166 434.036377,283.244171 
	C433.913300,283.458374 433.916229,283.952484 433.952759,283.978912 
	C433.989288,284.005341 433.933075,283.935211 433.610107,284.044556 
	C427.116089,291.579376 423.812225,299.981873 423.937164,309.775146 
	C424.099426,322.494049 429.875244,332.787537 437.680450,342.125946 
	C449.289185,356.015137 464.113251,365.772125 479.844482,374.431458 
	C477.351471,380.581940 474.897827,386.374390 472.634308,392.240234 
	C467.926331,404.440674 462.994934,416.569763 458.787872,428.943207 
	C456.114868,436.804779 458.101227,441.689026 464.238525,446.257263 
	C470.457001,446.625092 476.998871,448.290039 482.343231,446.459290 
	C507.308502,437.907135 532.047058,428.658630 556.663696,419.134399 
	C576.549622,411.440460 586.795288,396.133636 588.830078,375.162811 
	C588.926819,374.166168 587.522278,373.023804 586.980713,371.646790 
	C595.058533,360.548309 599.734924,348.896576 597.267883,335.145111 
	C594.101013,317.492065 583.767639,304.529144 570.510925,293.366455 
	C569.078857,292.160614 568.029907,290.499817 566.925781,288.675842 
	C569.791931,277.973480 572.535583,267.645355 575.560059,257.012604 
	C579.839783,256.407104 583.838562,256.106232 587.837402,255.805313 
	C588.040649,255.806656 588.243896,255.808014 588.906616,256.164276 
	C590.230042,256.390778 591.093994,256.262390 591.957947,256.134003 
	C593.373169,256.086212 594.788330,256.038452 596.900635,256.322815 
	C603.025635,257.102112 608.449158,257.857117 613.882324,257.935181 
	C627.024353,258.124054 640.170898,257.997009 653.315613,257.997589 
	C694.413574,257.999359 735.511658,257.972961 776.609497,258.043762 
	C781.083862,258.051483 785.557312,258.620514 790.031189,258.929169 
	C811.274536,263.468781 832.553772,286.901215 833.044006,315.150940 
	C833.090027,317.803558 833.034973,320.457947 832.797363,323.656281 
	C832.669434,324.455322 832.770874,324.709625 832.872375,324.963898 
	C832.935730,328.455719 833.054504,331.947571 833.054504,335.439392 
	C833.053528,433.999146 833.040588,532.558899 832.710571,631.794434 
	C832.552795,633.631226 832.713928,634.792236 832.875061,635.953186 
	C832.925476,636.730652 832.975952,637.508179 832.690674,638.926392 
	C832.240356,641.042297 832.125793,642.517517 832.004395,644.403076 
	C831.966064,646.172852 831.934570,647.532166 831.675964,649.018921 
	C831.025818,649.448120 830.602783,649.749878 830.006958,649.882446 
	C829.560059,650.151611 829.285828,650.589905 829.004028,651.013184 
	C828.996399,650.998108 829.029724,651.001465 828.706421,651.127197 
	C826.238770,652.516907 824.113525,653.814819 821.946777,655.039185 
	C810.250854,661.648071 797.253662,662.524170 784.340576,662.836975 
	C765.377014,663.296265 746.385742,662.637939 727.423950,663.132385 
	C715.704651,663.437988 703.924255,664.378235 692.336792,666.128845 
	C669.682983,669.551147 654.023071,683.271545 650.539307,703.671875 
	C648.487854,715.684509 648.564575,728.091675 648.098938,740.337158 
	C647.247375,762.729919 646.768616,785.136536 646.010498,807.533203 
	C645.417114,825.062622 640.246277,840.749390 626.998413,853.013428 
	C626.994141,852.999329 627.023438,853.002197 626.757263,853.136169 
	C626.324402,853.625244 626.157776,853.980408 625.781921,854.540710 
	C624.691284,855.480225 623.809937,856.214600 622.536865,856.959106 
	C621.093567,856.986938 620.041870,857.004761 618.522217,857.018066 
	C499.920868,857.010620 381.787628,857.002991 263.654388,857.047302 
	C261.764923,857.047974 259.875732,857.684692 257.986420,858.024597 
	C225.485916,859.048889 192.860153,828.844177 193.320953,797.089111 
	C193.488693,791.580078 193.304062,786.813354 193.119446,782.046631 
	C193.070099,756.324524 193.020752,730.602478 193.290161,704.204407 
	C193.448441,702.368347 193.287933,701.208191 193.127426,700.048096 
	C193.064255,691.395508 192.946655,682.742920 192.946335,674.090332 
	C192.943100,586.022461 192.958954,497.954559 193.255875,409.282104 
	C193.402878,408.132446 193.263458,407.587311 193.124039,407.042206 
	C193.072891,404.640717 193.021744,402.239258 193.289520,399.184052 
	C193.446136,397.368805 193.283844,396.207306 193.121552,395.045776 
z"/>
<path fill="#FFB611" opacity="1.000000" stroke="none" 
	d="
M830.179688,650.051636 
	C830.602783,649.749878 831.025818,649.448120 831.709473,649.474731 
	C832.272339,652.859436 832.574646,655.915710 832.877014,658.971985 
	C832.920471,662.023987 832.963989,665.075989 832.695068,668.819336 
	C832.546997,670.997803 832.711365,672.485046 832.875732,673.972229 
	C832.919678,674.738098 832.963745,675.504028 832.735840,676.796021 
	C832.600159,677.873352 832.736328,678.424622 832.872559,678.975891 
	C832.917480,684.684021 832.962341,690.392212 832.712952,696.753723 
	C832.570251,698.262573 832.721802,699.118103 832.873352,699.973572 
	C832.918579,706.349548 832.963806,712.725525 832.679443,719.854553 
	C832.523743,723.395203 832.697632,726.182800 832.871582,728.970398 
	C832.917664,731.360474 832.963806,733.750610 832.737305,736.730957 
	C832.600891,737.872925 832.737122,738.424561 832.873291,738.976196 
	C832.919495,743.352905 832.965637,747.729553 832.706299,752.785156 
	C832.559448,754.633789 832.718079,755.803467 832.876709,756.973145 
	C832.921326,762.682800 832.965942,768.392395 832.680542,774.854553 
	C832.525513,778.395142 832.700684,781.183167 832.875793,783.971252 
	C832.918762,784.430542 832.961731,784.889771 832.711975,785.877808 
	C832.570007,787.262024 832.720703,788.117554 832.871399,788.973022 
	C832.914795,789.429565 832.958252,789.886108 832.787048,790.769409 
	C832.517883,791.296448 832.391785,791.444336 832.421326,791.488647 
	C832.541748,791.669617 832.709778,791.818909 832.860291,791.979858 
	C832.017639,830.950806 806.565369,856.865051 767.158081,857.769897 
	C764.446045,857.271118 762.474915,857.016846 760.503540,857.015198 
	C714.645203,856.976562 668.786926,856.965332 622.928589,856.949036 
	C623.809937,856.214600 624.691284,855.480225 626.020874,854.363953 
	C626.653809,853.655396 626.838623,853.328796 627.023438,853.002197 
	C627.023438,853.002197 626.994141,852.999329 627.374634,853.068604 
	C633.246643,849.524231 639.413391,846.621460 644.104431,842.165222 
	C658.803772,828.201660 673.015503,813.720581 687.289490,799.314514 
	C709.069214,777.333252 730.772217,755.275757 752.452576,733.196411 
	C770.401672,714.917114 788.296631,696.584534 806.161194,678.222595 
	C811.956543,672.265869 817.728821,666.272522 823.210632,660.031616 
	C825.547852,657.370728 827.113464,654.032104 829.029663,651.001465 
	C829.029724,651.001465 828.996399,650.998108 829.261475,650.944153 
	C829.744202,650.610657 829.961914,650.331116 830.179688,650.051636 
z"/>
<path fill="#FB5140" opacity="1.000000" stroke="none" 
	d="
M495.959473,163.878632 
	C497.615021,155.972244 503.483124,151.519119 509.887726,147.993210 
	C522.444153,141.080521 536.077515,140.952026 549.703003,143.502686 
	C566.866577,146.715683 582.787109,153.276978 597.330627,163.033340 
	C610.883606,172.125168 621.905273,183.404861 627.511230,199.080276 
	C628.885376,202.922668 629.227356,207.134201 629.585083,211.683594 
	C628.794434,215.518295 628.462524,218.845428 628.130615,222.172577 
	C628.130615,222.172577 628.134277,222.033752 627.867859,222.177155 
	C625.980469,224.804016 624.667297,227.571091 622.685486,229.722061 
	C613.888245,239.269897 601.857056,240.174850 590.177490,240.348251 
	C574.268250,240.584473 559.220276,236.116531 544.898438,229.137680 
	C528.993103,221.387253 514.963440,211.238541 505.351959,196.226593 
	C501.231476,189.790909 499.055847,182.110001 495.997192,174.558838 
	C495.974060,172.087708 495.950348,170.052612 495.947540,167.760406 
	C495.965424,167.331345 495.962372,167.159409 495.976685,166.598831 
	C495.982513,165.433014 495.970978,164.655823 495.959473,163.878632 
z"/>
<path fill="#ED3A26" opacity="1.000000" stroke="none" 
	d="
M495.996582,174.994858 
	C499.055847,182.110001 501.231476,189.790909 505.351959,196.226593 
	C514.963440,211.238541 528.993103,221.387253 544.898438,229.137680 
	C559.220276,236.116531 574.268250,240.584473 590.177490,240.348251 
	C601.857056,240.174850 613.888245,239.269897 622.685486,229.722061 
	C624.667297,227.571091 625.980469,224.804016 627.934814,222.195587 
	C626.180969,233.959488 618.753967,242.186890 608.832886,247.807861 
	C602.615112,251.330597 595.294067,252.906052 588.152710,255.580261 
	C583.838562,256.106232 579.839783,256.407104 575.279968,256.679138 
	C560.402405,254.512924 546.500183,250.973282 533.769531,243.848572 
	C527.957153,240.595688 522.389893,236.904953 515.556702,232.702667 
	C517.355713,235.880142 518.072998,238.511398 519.789795,239.949097 
	C528.386047,247.147858 535.459045,256.288513 546.274780,260.712982 
	C550.335083,262.373932 551.691895,265.244873 550.293823,269.945099 
	C547.610596,278.965332 545.577515,288.182129 543.378174,297.342224 
	C540.524841,309.225769 537.772339,321.133514 534.518066,333.029358 
	C521.105347,333.245270 509.327118,329.881561 498.569214,322.407593 
	C482.215759,311.046204 475.180145,296.820862 487.920776,277.787354 
	C491.082306,273.064270 492.723145,267.323242 495.062988,262.050171 
	C496.336700,260.277618 497.610382,258.505096 498.921326,256.400238 
	C503.409729,247.784348 507.860901,239.500793 512.755249,231.260132 
	C513.659668,231.183594 514.120850,231.064163 514.582092,230.944733 
	C514.084045,230.631439 513.586060,230.318130 513.088013,230.004822 
	C509.443939,225.554245 505.799835,221.103683 502.338013,216.124725 
	C502.146271,214.398849 501.947449,213.108871 501.371429,212.018051 
	C494.967255,199.890289 491.067383,187.311111 494.149231,173.359467 
	C494.778778,173.916794 495.387665,174.455826 495.996582,174.994858 
z"/>
<path fill="#FECA14" opacity="1.000000" stroke="none" 
	d="
M458.524048,256.064026 
	C457.166779,256.746399 455.345551,257.913849 453.522522,257.916565 
	C389.883301,258.011658 326.243927,258.006897 262.604553,257.984070 
	C255.623016,257.981567 248.641525,257.786072 241.353668,257.405731 
	C262.976746,256.755310 284.905365,256.124695 306.835785,256.054565 
	C357.243134,255.893387 407.651337,256.005096 458.524048,256.064026 
z"/>
<path fill="#FECA14" opacity="1.000000" stroke="none" 
	d="
M789.723389,258.703430 
	C785.557312,258.620514 781.083862,258.051483 776.609497,258.043762 
	C735.511658,257.972961 694.413574,257.999359 653.315613,257.997589 
	C640.170898,257.997009 627.024353,258.124054 613.882324,257.935181 
	C608.449158,257.857117 603.025635,257.102112 597.321655,256.387939 
	C638.471619,256.074677 679.897705,256.022552 721.323792,255.985245 
	C737.296448,255.970871 753.274353,255.751724 769.239197,256.107117 
	C775.978943,256.257202 782.690979,257.649841 789.723389,258.703430 
z"/>
<path fill="#FDC704" opacity="1.000000" stroke="none" 
	d="
M258.450226,858.106567 
	C259.875732,857.684692 261.764923,857.047974 263.654388,857.047302 
	C381.787628,857.002991 499.920868,857.010620 618.521545,857.275146 
	C618.988037,857.708191 618.987061,857.879700 618.986145,858.051270 
	C589.524414,858.110962 560.062683,858.218018 530.600952,858.221375 
	C440.038635,858.231750 349.476349,858.202454 258.450226,858.106567 
z"/>
<path fill="#FEB20D" opacity="1.000000" stroke="none" 
	d="
M619.448975,858.141846 
	C618.987061,857.879700 618.988037,857.708191 618.989624,857.279663 
	C620.041870,857.004761 621.093567,856.986938 622.536865,856.959106 
	C668.786926,856.965332 714.645203,856.976562 760.503540,857.015198 
	C762.474915,857.016846 764.446045,857.271118 766.710205,857.706726 
	C751.882141,858.110779 736.761169,858.295288 721.640137,858.305054 
	C687.730713,858.326904 653.821289,858.261963 619.448975,858.141846 
z"/>
<path fill="#E32C1D" opacity="1.000000" stroke="none" 
	d="
M495.997192,174.558838 
	C495.387665,174.455826 494.778778,173.916794 494.149231,173.359467 
	C491.067383,187.311111 494.967255,199.890289 501.371429,212.018051 
	C501.947449,213.108871 502.146271,214.398849 502.266235,215.792603 
	C491.680023,200.791473 487.871429,184.514252 493.890350,166.633865 
	C494.189362,165.745529 494.802979,164.963104 495.614807,164.004990 
	C495.970978,164.655823 495.982513,165.433014 495.817230,166.691650 
	C495.579407,167.278778 495.440582,167.433487 495.470917,167.481598 
	C495.594666,167.677979 495.770172,167.841736 495.926636,168.017517 
	C495.950348,170.052612 495.974060,172.087708 495.997192,174.558838 
z"/>
<path fill="#FDC704" opacity="1.000000" stroke="none" 
	d="
M193.067596,782.506897 
	C193.304062,786.813354 193.488693,791.580078 193.396194,796.647461 
	C193.084610,792.287842 193.050186,787.627502 193.067596,782.506897 
z"/>
<path fill="#FEB20D" opacity="1.000000" stroke="none" 
	d="
M832.940552,658.511475 
	C832.574646,655.915710 832.272339,652.859436 831.936523,649.347290 
	C831.934570,647.532166 831.966064,646.172852 832.213501,644.401245 
	C832.429443,643.988892 832.847839,643.980530 832.847778,643.980530 
	C832.899902,648.670654 832.952026,653.360779 832.940552,658.511475 
z"/>
<path fill="#ED3A26" opacity="1.000000" stroke="none" 
	d="
M628.462036,221.924622 
	C628.462524,218.845428 628.794434,215.518295 629.511047,212.107132 
	C629.528320,215.240967 629.160889,218.458801 628.462036,221.924622 
z"/>
<path fill="#FECA14" opacity="1.000000" stroke="none" 
	d="
M496.488037,256.110107 
	C493.173157,256.346344 489.408112,256.505646 485.344147,256.394897 
	C488.709442,256.094269 492.373627,256.063721 496.488037,256.110107 
z"/>
<path fill="#FEB20D" opacity="1.000000" stroke="none" 
	d="
M832.939819,783.528015 
	C832.700684,781.183167 832.525513,778.395142 832.613342,775.320435 
	C832.918762,777.717468 832.961304,780.401123 832.939819,783.528015 
z"/>
<path fill="#FEB20D" opacity="1.000000" stroke="none" 
	d="
M832.935059,728.527100 
	C832.697632,726.182800 832.523743,723.395203 832.612610,720.320923 
	C832.916443,722.717468 832.957458,725.400635 832.935059,728.527100 
z"/>
<path fill="#FECA14" opacity="1.000000" stroke="none" 
	d="
M472.524750,256.065216 
	C470.507477,256.300201 468.053802,256.476013 465.323364,256.391479 
	C467.393829,256.089447 469.741089,256.047729 472.524750,256.065216 
z"/>
<path fill="#FEB20D" opacity="1.000000" stroke="none" 
	d="
M832.939087,673.563843 
	C832.711365,672.485046 832.546997,670.997803 832.627930,669.272339 
	C832.916199,670.407837 832.959290,671.781677 832.939087,673.563843 
z"/>
<path fill="#FDC704" opacity="1.000000" stroke="none" 
	d="
M832.910095,643.573730 
	C832.847839,643.980530 832.429443,643.988892 832.220337,643.990784 
	C832.125793,642.517517 832.240356,641.042297 832.614502,639.310181 
	C832.906799,640.424500 832.939575,641.795654 832.910095,643.573730 
z"/>
<path fill="#E32C1D" opacity="1.000000" stroke="none" 
	d="
M513.006104,230.200867 
	C513.586060,230.318130 514.084045,230.631439 514.582092,230.944733 
	C514.120850,231.064163 513.659668,231.183594 513.048279,231.062073 
	C512.898132,230.821091 512.924133,230.396912 513.006104,230.200867 
z"/>
<path fill="#FDC704" opacity="1.000000" stroke="none" 
	d="
M832.926697,635.565063 
	C832.713928,634.792236 832.552795,633.631226 832.633911,632.260925 
	C832.910156,633.093323 832.944214,634.135132 832.926697,635.565063 
z"/>
<path fill="#FDC704" opacity="1.000000" stroke="none" 
	d="
M193.075714,700.435974 
	C193.287933,701.208191 193.448441,702.368347 193.367355,703.737915 
	C193.091858,702.906250 193.057938,701.865051 193.075714,700.435974 
z"/>
<path fill="#FDC704" opacity="1.000000" stroke="none" 
	d="
M193.070465,395.434082 
	C193.283844,396.207306 193.446136,397.368805 193.365570,398.739563 
	C193.088257,397.906647 193.053818,396.864532 193.070465,395.434082 
z"/>
<path fill="#FEB20D" opacity="1.000000" stroke="none" 
	d="
M832.939880,756.582031 
	C832.718079,755.803467 832.559448,754.633789 832.639526,753.247925 
	C832.919861,754.084717 832.961426,755.137817 832.939880,756.582031 
z"/>
<path fill="#FEB20D" opacity="1.000000" stroke="none" 
	d="
M832.935364,788.608032 
	C832.720703,788.117554 832.570007,787.262024 832.646118,786.219055 
	C832.914978,786.768738 832.957153,787.505920 832.935364,788.608032 
z"/>
<path fill="#FECA14" opacity="1.000000" stroke="none" 
	d="
M591.592529,256.076111 
	C591.093994,256.262390 590.230042,256.390778 589.189392,256.278442 
	C589.750793,256.031219 590.488953,256.024719 591.592529,256.076111 
z"/>
<path fill="#FEB20D" opacity="1.000000" stroke="none" 
	d="
M832.936340,699.608459 
	C832.721802,699.118103 832.570251,698.262573 832.645386,697.219421 
	C832.914551,697.768921 832.956970,698.506165 832.936340,699.608459 
z"/>
<path fill="#FEB20D" opacity="1.000000" stroke="none" 
	d="
M832.934998,738.653442 
	C832.737122,738.424561 832.600891,737.872925 832.669983,737.174438 
	C832.915710,737.461914 832.956177,737.896240 832.934998,738.653442 
z"/>
<path fill="#FDC704" opacity="1.000000" stroke="none" 
	d="
M193.073929,407.359589 
	C193.263458,407.587311 193.402878,408.132446 193.332336,408.816040 
	C193.089539,408.528656 193.056671,408.102814 193.073929,407.359589 
z"/>
<path fill="#FEB20D" opacity="1.000000" stroke="none" 
	d="
M832.934204,678.653198 
	C832.736328,678.424622 832.600159,677.873352 832.668884,677.175049 
	C832.914490,677.462219 832.955200,677.896362 832.934204,678.653198 
z"/>
<path fill="#FEB20D" opacity="1.000000" stroke="none" 
	d="
M832.916138,791.740723 
	C832.709778,791.818909 832.541748,791.669617 832.421326,791.488647 
	C832.391785,791.444336 832.517883,791.296448 832.721130,791.108643 
	C832.869812,791.021057 832.971985,791.501526 832.916138,791.740723 
z"/>
<path fill="#FDC704" opacity="1.000000" stroke="none" 
	d="
M832.914185,324.732544 
	C832.770874,324.709625 832.669434,324.455322 832.720215,324.119751 
	C832.872559,324.038483 832.955994,324.501221 832.914185,324.732544 
z"/>
<path fill="#FFE85E" opacity="1.000000" stroke="none" 
	d="
M828.706421,651.127197 
	C827.113464,654.032104 825.547852,657.370728 823.210632,660.031616 
	C817.728821,666.272522 811.956543,672.265869 806.161194,678.222595 
	C788.296631,696.584534 770.401672,714.917114 752.452576,733.196411 
	C730.772217,755.275757 709.069214,777.333252 687.289490,799.314514 
	C673.015503,813.720581 658.803772,828.201660 644.104431,842.165222 
	C639.413391,846.621460 633.246643,849.524231 627.378906,853.082642 
	C640.246277,840.749390 645.417114,825.062622 646.010498,807.533203 
	C646.768616,785.136536 647.247375,762.729919 648.098938,740.337158 
	C648.564575,728.091675 648.487854,715.684509 650.539307,703.671875 
	C654.023071,683.271545 669.682983,669.551147 692.336792,666.128845 
	C703.924255,664.378235 715.704651,663.437988 727.423950,663.132385 
	C746.385742,662.637939 765.377014,663.296265 784.340576,662.836975 
	C797.253662,662.524170 810.250854,661.648071 821.946777,655.039185 
	C824.113525,653.814819 826.238770,652.516907 828.706421,651.127197 
z"/>
<path fill="#FB5140" opacity="1.000000" stroke="none" 
	d="
M494.592285,261.980682 
	C492.723145,267.323242 491.082306,273.064270 487.920776,277.787354 
	C475.180145,296.820862 482.215759,311.046204 498.569214,322.407593 
	C509.327118,329.881561 521.105347,333.245270 534.954224,333.031372 
	C540.215820,332.041107 544.582886,331.047394 549.119141,330.346741 
	C554.312134,334.156799 559.655823,337.302307 564.280090,341.283325 
	C570.271851,346.441498 577.026184,351.310760 579.121826,359.532166 
	C579.656738,361.630890 578.865051,364.959229 577.394775,366.464172 
	C575.300415,368.607941 572.143677,369.935120 569.219910,371.010254 
	C553.950928,376.624756 538.066833,376.246246 522.500549,373.719910 
	C493.388977,368.995331 467.664429,356.826782 447.442841,334.793243 
	C437.537048,323.999786 430.799408,311.528717 432.036316,296.153778 
	C432.365936,292.056580 433.284790,288.006775 433.933075,283.935211 
	C433.933075,283.935211 433.989288,284.005341 434.136047,283.933960 
	C434.374084,283.778564 434.557190,283.648529 434.541840,283.617920 
	C434.437805,283.410217 434.291870,283.223480 434.159485,283.029968 
	C443.478394,270.295166 457.084534,265.393402 471.810455,263.134491 
	C479.137634,262.010529 486.677795,262.274902 494.592285,261.980682 
z"/>
<path fill="#ED3826" opacity="1.000000" stroke="none" 
	d="
M433.610107,284.044556 
	C433.284790,288.006775 432.365936,292.056580 432.036316,296.153778 
	C430.799408,311.528717 437.537048,323.999786 447.442841,334.793243 
	C467.664429,356.826782 493.388977,368.995331 522.500549,373.719910 
	C538.066833,376.246246 553.950928,376.624756 569.219910,371.010254 
	C572.143677,369.935120 575.300415,368.607941 577.394775,366.464172 
	C578.865051,364.959229 579.656738,361.630890 579.121826,359.532166 
	C577.026184,351.310760 570.271851,346.441498 564.280090,341.283325 
	C559.655823,337.302307 554.312134,334.156799 549.424805,330.188904 
	C556.317749,325.750763 559.693848,319.662445 561.220337,312.093658 
	C562.781677,304.352020 564.918396,296.726440 566.803223,289.050049 
	C568.029907,290.499817 569.078857,292.160614 570.510925,293.366455 
	C583.767639,304.529144 594.101013,317.492065 597.267883,335.145111 
	C599.734924,348.896576 595.058533,360.548309 586.697998,371.806213 
	C572.189209,386.784668 553.978943,389.218994 535.322449,388.465240 
	C524.535767,388.029419 513.853638,385.004822 502.756012,383.040649 
	C494.915009,379.992828 487.442444,377.049744 479.969879,374.106659 
	C464.113251,365.772125 449.289185,356.015137 437.680450,342.125946 
	C429.875244,332.787537 424.099426,322.494049 423.937164,309.775146 
	C423.812225,299.981873 427.116089,291.579376 433.610107,284.044556 
z"/>
<path fill="#FEB20D" opacity="1.000000" stroke="none" 
	d="
M503.124451,383.145325 
	C513.853638,385.004822 524.535767,388.029419 535.322449,388.465240 
	C553.978943,389.218994 572.189209,386.784668 586.534180,372.108704 
	C587.522278,373.023804 588.926819,374.166168 588.830078,375.162811 
	C586.795288,396.133636 576.549622,411.440460 556.663696,419.134399 
	C532.047058,428.658630 507.308502,437.907135 482.343231,446.459290 
	C476.998871,448.290039 470.457001,446.625092 464.668640,446.274719 
	C474.389343,447.358673 478.417999,440.527466 481.484009,433.772491 
	C489.067505,417.064728 495.956421,400.041687 503.124451,383.145325 
z"/>
<path fill="#E32C1D" opacity="1.000000" stroke="none" 
	d="
M566.925781,288.675842 
	C564.918396,296.726440 562.781677,304.352020 561.220337,312.093658 
	C559.693848,319.662445 556.317749,325.750763 549.255554,329.895813 
	C544.582886,331.047394 540.215820,332.041107 535.412598,333.032837 
	C537.772339,321.133514 540.524841,309.225769 543.378174,297.342224 
	C545.577515,288.182129 547.610596,278.965332 550.293823,269.945099 
	C551.691895,265.244873 550.335083,262.373932 546.274780,260.712982 
	C535.459045,256.288513 528.386047,247.147858 519.789795,239.949097 
	C518.072998,238.511398 517.355713,235.880142 515.556702,232.702667 
	C522.389893,236.904953 527.957153,240.595688 533.769531,243.848572 
	C546.500183,250.973282 560.402405,254.512924 574.999084,256.983704 
	C572.535583,267.645355 569.791931,277.973480 566.925781,288.675842 
z"/>
<path fill="#455460" opacity="1.000000" stroke="none" 
	d="
M502.756012,383.040649 
	C495.956421,400.041687 489.067505,417.064728 481.484009,433.772491 
	C478.417999,440.527466 474.389343,447.358673 464.440399,445.961426 
	C458.101227,441.689026 456.114868,436.804779 458.787872,428.943207 
	C462.994934,416.569763 467.926331,404.440674 472.634308,392.240234 
	C474.897827,386.374390 477.351471,380.581940 479.844482,374.431458 
	C487.442444,377.049744 494.915009,379.992828 502.756012,383.040649 
z"/>
<path fill="#FFE85E" opacity="1.000000" stroke="none" 
	d="
M830.006958,649.882446 
	C829.961914,650.331116 829.744202,650.610657 829.269043,650.959229 
	C829.285828,650.589905 829.560059,650.151611 830.006958,649.882446 
z"/>
<path fill="#ED3826" opacity="1.000000" stroke="none" 
	d="
M434.036377,283.244171 
	C434.291870,283.223480 434.437805,283.410217 434.541840,283.617920 
	C434.557190,283.648529 434.374084,283.778564 434.099518,283.907532 
	C433.916229,283.952484 433.913300,283.458374 434.036377,283.244171 
z"/>
<path fill="#FFE85E" opacity="1.000000" stroke="none" 
	d="
M626.757202,853.136169 
	C626.838623,853.328796 626.653809,853.655396 626.230103,854.158813 
	C626.157776,853.980408 626.324402,853.625244 626.757202,853.136169 
z"/>
<path fill="#ED3A26" opacity="1.000000" stroke="none" 
	d="
M495.947510,167.760406 
	C495.770172,167.841736 495.594666,167.677979 495.470917,167.481598 
	C495.440582,167.433487 495.579407,167.278778 495.799866,167.080261 
	C495.962372,167.159409 495.965424,167.331345 495.947510,167.760406 
z"/>
</svg>